<svg xmlns="http://www.w3.org/2000/svg" viewBox="0 0 366.12 470.05"><defs><style>.cls-1{fill:none;stroke:#000;stroke-miterlimit:10;stroke-width:14px;}</style></defs><title>copy</title><g id="Layer_2" data-name="Layer 2"><g id="Capa_1" data-name="Capa 1"><rect class="cls-1" x="7" y="86.05" width="271.07" height="377" rx="38.92" ry="38.92"/><path d="M313.37,0H127A46,46,0,0,0,81.91,37a6.84,6.84,0,0,0,6.71,8.16H89a6.89,6.89,0,0,0,6.71-5.62A32,32,0,0,1,127,14H320.19a32,32,0,0,1,31.93,31.92V345.08a32,32,0,0,1-23.25,30.72,6.8,6.8,0,0,0-4.94,6.55v.38a6.8,6.8,0,0,0,8.53,6.61,46,46,0,0,0,33.66-44.26V52.74A52.75,52.75,0,0,0,313.37,0Z"/><path d="M81.05,45.19v.73c0-.24,0-.49,0-.73Z"/></g></g></svg>